<svg width="98" height="98" viewBox="0 0 98 98" fill="none" xmlns="http://www.w3.org/2000/svg">
<circle cx="49" cy="49" r="49" fill="#FFB3B3"/>
<path d="M41.6667 67.3333H56.3333C63.7033 67.3333 65.0233 64.3817 65.4083 60.7883L66.7833 46.1217C67.2783 41.6483 65.995 38 58.1667 38H39.8333C32.005 38 30.7217 41.6483 31.2167 46.1217L32.5917 60.7883C32.9767 64.3817 34.2967 67.3333 41.6667 67.3333Z" stroke="#C50E0E" stroke-width="1.5" stroke-miterlimit="10" stroke-linecap="round" stroke-linejoin="round"/>
<path d="M41.6665 37.9998V36.5332C41.6665 33.2882 41.6665 30.6665 47.5332 30.6665H50.4665C56.3332 30.6665 56.3332 33.2882 56.3332 36.5332V37.9998" stroke="#C50E0E" stroke-width="1.5" stroke-miterlimit="10" stroke-linecap="round" stroke-linejoin="round"/>
<path d="M52.6668 50.8333V52.6667C52.6668 52.685 52.6668 52.685 52.6668 52.7033C52.6668 54.7017 52.6485 56.3333 49.0002 56.3333C45.3702 56.3333 45.3335 54.72 45.3335 52.7217V50.8333C45.3335 49 45.3335 49 47.1668 49H50.8335C52.6668 49 52.6668 49 52.6668 50.8333Z" stroke="#C50E0E" stroke-width="1.5" stroke-miterlimit="10" stroke-linecap="round" stroke-linejoin="round"/>
<path d="M66.6915 47.1665C62.4565 50.2465 57.6165 52.0798 52.6665 52.7032" stroke="#C50E0E" stroke-width="1.5" stroke-miterlimit="10" stroke-linecap="round" stroke-linejoin="round"/>
<path d="M31.8032 47.6616C35.9282 50.485 40.5849 52.19 45.3332 52.7216" stroke="#C50E0E" stroke-width="1.5" stroke-miterlimit="10" stroke-linecap="round" stroke-linejoin="round"/>
</svg>
