<svg width="98" height="99" viewBox="0 0 98 99" fill="none" xmlns="http://www.w3.org/2000/svg">
<circle cx="49" cy="50" r="49" fill="#B3D6FF"/>
<path d="M41.6667 67.4167H56.3333C63.7033 67.4167 65.0233 64.5321 65.4083 61.0204L66.7833 46.6871C67.2783 42.3154 65.995 38.75 58.1667 38.75H39.8333C32.005 38.75 30.7217 42.3154 31.2167 46.6871L32.5917 61.0204C32.9767 64.5321 34.2967 67.4167 41.6667 67.4167Z" stroke="#0E62C5" stroke-width="1.5" stroke-miterlimit="10" stroke-linecap="round" stroke-linejoin="round"/>
<path d="M41.6665 38.7502V37.3168C41.6665 34.1456 41.6665 31.5835 47.5332 31.5835H50.4665C56.3332 31.5835 56.3332 34.1456 56.3332 37.3168V38.7502" stroke="#0E62C5" stroke-width="1.5" stroke-miterlimit="10" stroke-linecap="round" stroke-linejoin="round"/>
<path d="M52.6668 51.2917V53.0833C52.6668 53.1012 52.6668 53.1013 52.6668 53.1192C52.6668 55.0721 52.6485 56.6667 49.0002 56.6667C45.3702 56.6667 45.3335 55.09 45.3335 53.1371V51.2917C45.3335 49.5 45.3335 49.5 47.1668 49.5H50.8335C52.6668 49.5 52.6668 49.5 52.6668 51.2917Z" stroke="#0E62C5" stroke-width="1.5" stroke-miterlimit="10" stroke-linecap="round" stroke-linejoin="round"/>
<path d="M66.6915 47.7085C62.4565 50.7185 57.6165 52.5102 52.6665 53.1193" stroke="#0E62C5" stroke-width="1.5" stroke-miterlimit="10" stroke-linecap="round" stroke-linejoin="round"/>
<path d="M31.8032 48.1919C35.9282 50.9511 40.5849 52.6173 45.3332 53.1369" stroke="#0E62C5" stroke-width="1.5" stroke-miterlimit="10" stroke-linecap="round" stroke-linejoin="round"/>
</svg>
