<svg width="20" height="20" viewBox="0 0 20 20" fill="none" xmlns="http://www.w3.org/2000/svg">
<path d="M11.0281 0.000976562C12.1535 0.00283656 12.7238 0.00878657 13.2166 0.0234566L13.4107 0.0298066C13.6349 0.0377766 13.8561 0.0477767 14.1228 0.0602767C15.1869 0.109437 15.9128 0.277777 16.5503 0.525277C17.2094 0.779437 17.7661 1.12278 18.3219 1.67861C18.8769 2.23444 19.2203 2.79278 19.4753 3.45028C19.7219 4.08694 19.8903 4.81361 19.9403 5.87778C19.9522 6.14444 19.9618 6.36564 19.9697 6.58989L19.976 6.78397C19.9906 7.27672 19.9973 7.8471 19.9994 8.9725L20.0002 9.7182C20.0003 9.8093 20.0003 9.9033 20.0003 10.0003L20.0002 10.2824L19.9996 11.0281C19.9977 12.1535 19.9918 12.7238 19.9771 13.2166L19.9707 13.4107C19.9628 13.6349 19.9528 13.8561 19.9403 14.1228C19.8911 15.1869 19.7219 15.9128 19.4753 16.5503C19.2211 17.2094 18.8769 17.7661 18.3219 18.3219C17.7661 18.8769 17.2069 19.2203 16.5503 19.4753C15.9128 19.7219 15.1869 19.8903 14.1228 19.9403C13.8561 19.9522 13.6349 19.9618 13.4107 19.9697L13.2166 19.976C12.7238 19.9906 12.1535 19.9973 11.0281 19.9994L10.2824 20.0002C10.1913 20.0003 10.0973 20.0003 10.0003 20.0003L9.7182 20.0002L8.9725 19.9996C7.8471 19.9977 7.27672 19.9918 6.78397 19.9771L6.58989 19.9707C6.36564 19.9628 6.14444 19.9528 5.87778 19.9403C4.81361 19.8911 4.08861 19.7219 3.45028 19.4753C2.79194 19.2211 2.23444 18.8769 1.67861 18.3219C1.12278 17.7661 0.780277 17.2069 0.525277 16.5503C0.277777 15.9128 0.110277 15.1869 0.0602767 14.1228C0.0483967 13.8561 0.0387066 13.6349 0.0308566 13.4107L0.0245667 13.2166C0.00993665 12.7238 0.00326674 12.1535 0.00110674 11.0281L0.000976562 8.9725C0.00283656 7.8471 0.00878657 7.27672 0.0234566 6.78397L0.0298066 6.58989C0.0377766 6.36564 0.0477767 6.14444 0.0602767 5.87778C0.109437 4.81278 0.277777 4.08778 0.525277 3.45028C0.779437 2.79194 1.12278 2.23444 1.67861 1.67861C2.23444 1.12278 2.79278 0.780277 3.45028 0.525277C4.08778 0.277777 4.81278 0.110277 5.87778 0.0602767C6.14444 0.0483967 6.36564 0.0387066 6.58989 0.0308566L6.78397 0.0245667C7.27672 0.00993665 7.8471 0.00326674 8.9725 0.00110674L11.0281 0.000976562ZM10.0003 5.00028C7.23738 5.00028 5.00028 7.23981 5.00028 10.0003C5.00028 12.7632 7.23981 15.0003 10.0003 15.0003C12.7632 15.0003 15.0003 12.7607 15.0003 10.0003C15.0003 7.23738 12.7607 5.00028 10.0003 5.00028ZM10.0003 7.00028C11.6572 7.00028 13.0003 8.3429 13.0003 10.0003C13.0003 11.6572 11.6576 13.0003 10.0003 13.0003C8.3434 13.0003 7.00028 11.6576 7.00028 10.0003C7.00028 8.3434 8.3429 7.00028 10.0003 7.00028ZM15.2503 3.50028C14.561 3.50028 14.0003 4.06018 14.0003 4.74943C14.0003 5.43867 14.5602 5.99944 15.2503 5.99944C15.9395 5.99944 16.5003 5.43954 16.5003 4.74943C16.5003 4.06018 15.9386 3.49941 15.2503 3.50028Z" fill="#CBD5E1"/>
</svg>
