<svg width="209" height="43" viewBox="0 0 209 43" fill="none" xmlns="http://www.w3.org/2000/svg">
<g clip-path="url(#clip0_2588_6065)">
<path d="M15.7927 25.2981C15.468 25.2981 15.1615 25.2946 14.8729 25.2875C14.5843 25.2804 14.3099 25.2722 14.0496 25.2628L13.2568 25.2357V20.3922C13.5544 20.3734 13.8332 20.3604 14.0943 20.351C14.3554 20.3416 14.613 20.3345 14.8694 20.3298C15.1258 20.3251 15.3939 20.3228 15.6727 20.3228C16.387 20.3228 16.9716 20.4103 17.4264 20.5854C17.8477 20.7336 18.2036 21.0254 18.432 21.4097C18.6461 21.7794 18.7535 22.2572 18.7543 22.8428C18.7723 23.3215 18.6557 23.7956 18.4179 24.2112C18.1837 24.5862 17.8346 24.8754 17.4228 25.0355C16.9018 25.2287 16.348 25.3179 15.7927 25.2981ZM15.7927 24.3372C16.0662 24.3441 16.3376 24.2873 16.5854 24.1711C16.8048 24.0643 16.9833 23.8886 17.0935 23.6707C17.2185 23.409 17.2787 23.121 17.2688 22.831C17.2809 22.5265 17.2208 22.2235 17.0935 21.9467C16.9825 21.7268 16.8011 21.5506 16.5783 21.4462C16.3093 21.3293 16.0176 21.2738 15.7244 21.2837H15.3128C15.1709 21.2837 15.0344 21.2872 14.9035 21.2943C14.7741 21.2943 14.653 21.3049 14.5436 21.3143V24.2924L14.8458 24.3066L15.154 24.3195C15.2599 24.3195 15.3645 24.3278 15.4704 24.3301C15.5762 24.3325 15.6868 24.3372 15.7962 24.3372H15.7927Z" fill="white"/>
<path d="M29.6547 25.3089C29.3263 25.3129 28.9986 25.2781 28.6784 25.2052C28.4138 25.1459 28.1637 25.0338 27.9433 24.8755C27.7395 24.7238 27.5796 24.5206 27.4799 24.2867C27.3682 24.0171 27.3141 23.7271 27.3211 23.4353C27.3122 23.1089 27.3761 22.7847 27.5082 22.4862C27.6243 22.2349 27.8009 22.0164 28.0221 21.8503C28.2492 21.685 28.506 21.565 28.7784 21.497C29.0784 21.4218 29.3866 21.3846 29.6958 21.3863C30.3812 21.3863 30.8908 21.5264 31.2249 21.8067C31.5589 22.087 31.7236 22.5364 31.7189 23.155V23.3282C31.7189 23.4027 31.7165 23.4746 31.7118 23.5436L31.1837 23.579C30.979 23.5931 30.7466 23.6068 30.4862 23.6202C30.2263 23.6343 29.9452 23.6461 29.6406 23.6555C29.3359 23.6649 29.0125 23.6744 28.6679 23.6826C28.6632 23.6963 28.6608 23.7106 28.6608 23.725V23.7662C28.6619 23.8962 28.7095 24.0216 28.7949 24.1195C28.9016 24.2268 29.0373 24.3005 29.1854 24.3315C29.3979 24.3824 29.6161 24.4057 29.8346 24.4009C30.0134 24.4009 30.1992 24.3927 30.3898 24.3774C30.5803 24.3621 30.7756 24.3373 30.9779 24.3079C31.1802 24.2785 31.3742 24.2431 31.566 24.2066L31.7036 25.0545C31.5013 25.1051 31.2931 25.1511 31.079 25.1899C30.865 25.2288 30.6415 25.2582 30.4098 25.2771C30.1781 25.2959 29.9264 25.3089 29.6547 25.3089ZM28.682 22.9631C28.869 22.9631 29.0501 22.9631 29.2242 22.956C29.3983 22.949 29.5606 22.9454 29.7147 22.9384L30.1228 22.9207C30.2404 22.9207 30.338 22.9125 30.411 22.9077C30.4075 22.7727 30.3733 22.6401 30.311 22.5203C30.2546 22.4196 30.1653 22.3415 30.0581 22.2989C29.9206 22.249 29.7749 22.2258 29.6288 22.2306C29.5224 22.2305 29.4163 22.2419 29.3124 22.2648C29.2125 22.287 29.1173 22.3269 29.0313 22.3825C28.9428 22.4415 28.8682 22.5191 28.8125 22.6098C28.7473 22.7184 28.703 22.8382 28.682 22.9631Z" fill="white"/>
<path d="M40.1743 25.2608L42.3373 20.4326H43.8334L46.0023 25.2608H44.5391L44.1498 24.3187H41.9303L41.5422 25.2608H40.1743ZM42.3114 23.3766H43.7663L43.0395 21.4489L42.3114 23.3766Z" fill="white"/>
<path d="M55.7128 21.4925V22.0554C55.8515 21.9242 55.9993 21.803 56.155 21.6927C56.2748 21.6079 56.4063 21.5412 56.5455 21.4949C56.6807 21.4531 56.8216 21.4324 56.9631 21.4336C57.0596 21.4334 57.156 21.4413 57.2512 21.4572C57.3481 21.4733 57.444 21.4953 57.5382 21.5231L57.3653 22.6006C57.2666 22.5743 57.1664 22.5535 57.0654 22.5382C56.9699 22.5252 56.8736 22.5185 56.7772 22.5182C56.6268 22.5197 56.4775 22.5451 56.335 22.5936C56.1544 22.658 55.9843 22.7488 55.8304 22.8633V25.2608H54.5366V21.4925H55.7128Z" fill="white"/>
<path d="M68.138 25.2806C67.8849 25.2873 67.6334 25.2378 67.4017 25.1358C67.1955 25.0375 67.0294 24.8711 66.9312 24.6647C66.8104 24.3874 66.7545 24.0861 66.7677 23.7839V22.3166H66.062V21.5594L66.7677 21.4723L66.91 20.668H68.0627V21.4923H69.3565V22.3166H68.0627V23.705C68.0486 23.8554 68.0937 24.0055 68.1885 24.123C68.2418 24.1697 68.304 24.2052 68.3713 24.2272C68.4386 24.2493 68.5096 24.2575 68.5802 24.2514C68.7015 24.2509 68.8225 24.2382 68.9413 24.2137L69.3494 24.1266L69.5129 25.0687C69.2811 25.1351 69.0454 25.187 68.8072 25.2241C68.5859 25.2598 68.3621 25.2787 68.138 25.2806Z" fill="white"/>
<path d="M78.8167 21.0694C78.543 21.0694 78.347 21.0234 78.2286 20.9316C78.1712 20.8759 78.1257 20.8093 78.0945 20.7357C78.0634 20.6621 78.0474 20.5829 78.0474 20.5029C78.0474 20.423 78.0634 20.3438 78.0945 20.2702C78.1257 20.1966 78.1712 20.13 78.2286 20.0743C78.3509 19.9825 78.5469 19.9365 78.8167 19.9365C79.1001 19.9365 79.3024 19.9825 79.4212 20.0743C79.4776 20.1305 79.5223 20.1973 79.5527 20.2709C79.5832 20.3445 79.5989 20.4233 79.5989 20.5029C79.5989 20.5826 79.5832 20.6614 79.5527 20.735C79.5223 20.8086 79.4776 20.8754 79.4212 20.9316C79.3024 21.0211 79.1001 21.0694 78.8167 21.0694ZM78.178 25.2604V21.4921H79.4718V25.2604H78.178Z" fill="white"/>
<path d="M88.2119 25.0697L88.3495 24.2194C88.4554 24.2477 88.5789 24.276 88.72 24.3066C88.8612 24.3372 89.0117 24.3631 89.1693 24.3855C89.3269 24.4079 89.4834 24.4267 89.6398 24.4408C89.7962 24.455 89.9338 24.462 90.062 24.462C90.2425 24.4702 90.4228 24.4442 90.5937 24.3855C90.6443 24.372 90.6892 24.3427 90.722 24.3018C90.7548 24.2609 90.7737 24.2106 90.776 24.1582C90.7755 24.1255 90.7659 24.0936 90.7483 24.0661C90.7306 24.0386 90.7055 24.0167 90.676 24.0028C90.5892 23.9552 90.4956 23.9215 90.3984 23.9027C90.2808 23.8744 90.1432 23.8509 89.9903 23.8297C89.8374 23.8085 89.6751 23.7849 89.5057 23.7566C89.3329 23.7298 89.1631 23.686 88.9988 23.6259C88.8632 23.577 88.7368 23.5058 88.6248 23.4151C88.5223 23.3322 88.4416 23.2255 88.3895 23.1043C88.3344 22.9695 88.3075 22.8248 88.3107 22.6791C88.3107 22.2379 88.4699 21.9145 88.7882 21.7088C89.1066 21.5031 89.588 21.4007 90.2326 21.4014C90.4341 21.4003 90.6356 21.4106 90.836 21.4321C91.0241 21.4533 91.197 21.4792 91.3547 21.5121C91.5123 21.5451 91.651 21.5757 91.7698 21.6087L91.6263 22.4578C91.5205 22.426 91.3911 22.3953 91.2547 22.3647C91.1182 22.3341 90.9559 22.3094 90.7842 22.2894C90.5972 22.2674 90.4091 22.2568 90.2208 22.2576C90.0491 22.2507 89.8775 22.2743 89.7139 22.327C89.664 22.3394 89.6196 22.3677 89.5873 22.4076C89.555 22.4476 89.5367 22.497 89.5351 22.5484C89.5338 22.577 89.539 22.6055 89.5502 22.6318C89.5614 22.6581 89.5783 22.6815 89.5998 22.7003C89.6588 22.7435 89.7267 22.7728 89.7986 22.7863C89.9066 22.8103 90.0157 22.8287 90.1255 22.8417C90.2526 22.8581 90.3996 22.877 90.5643 22.9005C90.7626 22.9273 90.959 22.9667 91.1523 23.0183C91.3162 23.0629 91.4724 23.132 91.6158 23.2232C91.7432 23.3053 91.8483 23.4178 91.9216 23.5506C91.9986 23.7025 92.0362 23.8713 92.031 24.0416C92.0361 24.2206 91.9986 24.3982 91.9216 24.5598C91.8489 24.7 91.7441 24.8211 91.6158 24.913C91.4766 25.0118 91.3225 25.0878 91.1594 25.138C90.9782 25.1952 90.7919 25.2346 90.6031 25.2557C90.4005 25.2796 90.1966 25.2914 89.9926 25.2911C89.7872 25.2911 89.5814 25.2816 89.3752 25.2628C89.1693 25.2451 88.9682 25.218 88.7741 25.1839C88.5801 25.1497 88.386 25.1156 88.2119 25.0697Z" fill="white"/>
<path d="M100.435 24.2007C100.425 23.9902 100.481 23.7818 100.595 23.6048C100.721 23.4413 100.893 23.3185 101.089 23.2515C101.369 23.1507 101.661 23.0855 101.958 23.0572C102.311 23.0148 102.737 22.9854 103.231 22.9665V22.7852C103.232 22.7121 103.211 22.6404 103.17 22.5799C103.129 22.5194 103.071 22.473 103.002 22.4472C102.786 22.3645 102.555 22.328 102.324 22.34C102.191 22.34 102.038 22.3483 101.867 22.3636C101.697 22.3789 101.525 22.4025 101.352 22.4295C101.179 22.4566 101.015 22.4931 100.857 22.5343L100.684 21.6099C100.948 21.5456 101.23 21.491 101.532 21.4462C101.824 21.4032 102.119 21.3812 102.414 21.3803C102.819 21.3696 103.224 21.4201 103.614 21.5299C103.886 21.6034 104.128 21.7623 104.303 21.9832C104.458 22.209 104.535 22.4787 104.524 22.7522V23.9227C104.513 24.027 104.536 24.1319 104.59 24.2218C104.611 24.2469 104.636 24.267 104.666 24.2805C104.695 24.294 104.727 24.3005 104.76 24.2996C104.79 24.2994 104.82 24.297 104.85 24.2925C104.883 24.2876 104.915 24.2805 104.947 24.2713L105.057 25.0956C104.946 25.1672 104.825 25.2212 104.697 25.2558C104.557 25.2933 104.413 25.3119 104.268 25.3111C104.07 25.3161 103.874 25.2758 103.694 25.1934C103.533 25.112 103.412 24.9701 103.355 24.7989C103.198 24.9035 103.032 24.9957 102.86 25.0744C102.688 25.1525 102.508 25.211 102.324 25.2487C102.119 25.2893 101.91 25.309 101.702 25.3076C101.538 25.3083 101.375 25.2873 101.217 25.2452C101.07 25.2062 100.933 25.1385 100.812 25.0462C100.692 24.9532 100.597 24.8318 100.536 24.6929C100.467 24.538 100.433 24.3701 100.435 24.2007ZM101.907 24.1312C101.902 24.188 101.91 24.2452 101.931 24.2984C101.951 24.3517 101.983 24.3996 102.025 24.4385C102.116 24.5091 102.229 24.5447 102.344 24.5386C102.451 24.5368 102.558 24.5218 102.662 24.4939C102.788 24.463 102.912 24.4216 103.031 24.3702C103.145 24.3229 103.251 24.2586 103.346 24.1795V23.5907C103.094 23.5989 102.875 23.613 102.694 23.6319C102.541 23.644 102.39 23.6728 102.244 23.7178C102.145 23.7454 102.056 23.8005 101.987 23.8768C101.931 23.9489 101.903 24.0387 101.907 24.13V24.1312Z" fill="white"/>
<path d="M113.698 25.2608V21.4925H114.874V21.9153C115.081 21.8046 115.271 21.7131 115.443 21.6409C115.611 21.5716 115.785 21.5172 115.962 21.4784C116.144 21.4411 116.329 21.4225 116.514 21.423C116.788 21.413 117.061 21.4688 117.309 21.5855C117.508 21.6834 117.672 21.8395 117.78 22.033C117.886 22.2333 117.939 22.4575 117.935 22.6842V25.2608H116.641V23.1329C116.649 23.0386 116.639 22.9437 116.61 22.8535C116.582 22.7633 116.535 22.6798 116.474 22.6077C116.408 22.5489 116.33 22.5039 116.246 22.4754C116.162 22.4469 116.073 22.4354 115.985 22.4416C115.877 22.4417 115.769 22.4523 115.664 22.4734C115.555 22.4945 115.448 22.5244 115.344 22.5629C115.236 22.6014 115.119 22.6461 114.991 22.6972V25.2608H113.698Z" fill="white"/>
<path d="M126.872 25.2608V21.4925H128.048V21.9153C128.215 21.8149 128.389 21.7256 128.569 21.6479C128.729 21.5797 128.895 21.5253 129.064 21.4854C129.226 21.4489 129.391 21.4304 129.557 21.4301C129.723 21.4267 129.889 21.4477 130.05 21.4925C130.175 21.5282 130.292 21.5882 130.394 21.6691C130.49 21.7489 130.57 21.8464 130.629 21.9565C130.835 21.8387 131.028 21.7445 131.205 21.6656C131.375 21.5888 131.553 21.5284 131.735 21.4854C131.919 21.4432 132.108 21.4223 132.297 21.423C132.455 21.4207 132.611 21.443 132.762 21.489C132.891 21.5291 133.012 21.5912 133.121 21.6727C133.221 21.7489 133.308 21.8426 133.376 21.9494C133.443 22.0562 133.493 22.1731 133.524 22.2956C133.556 22.4226 133.572 22.5532 133.572 22.6842V25.2608H132.278V23.1411C132.279 23.0528 132.269 22.9647 132.25 22.8785C132.233 22.8004 132.201 22.7264 132.156 22.6607C132.11 22.5969 132.048 22.5458 131.976 22.5123C131.886 22.4724 131.788 22.4534 131.689 22.4569C131.587 22.4569 131.486 22.4684 131.387 22.4911C131.29 22.514 131.195 22.5439 131.102 22.5806C131.011 22.6183 130.923 22.6571 130.839 22.6984C130.848 22.7541 130.855 22.8083 130.86 22.8609C130.865 22.9135 130.867 22.9653 130.867 23.0163V25.2608H129.573V23.1411C129.574 23.0528 129.564 22.9647 129.545 22.8785C129.529 22.7998 129.496 22.7255 129.449 22.6607C129.4 22.5969 129.337 22.5459 129.264 22.5123C129.173 22.4722 129.075 22.4533 128.976 22.4569C128.883 22.4571 128.791 22.4674 128.701 22.4876C128.61 22.5083 128.522 22.5362 128.436 22.5712C128.351 22.6053 128.259 22.6477 128.162 22.6984V25.2608H126.872Z" fill="white"/>
<path d="M142.189 24.2006C142.178 23.9901 142.234 23.7817 142.349 23.6047C142.475 23.4412 142.647 23.3184 142.843 23.2514C143.123 23.1507 143.415 23.0854 143.712 23.0571C144.065 23.0147 144.49 22.9853 144.984 22.9665V22.7851C144.986 22.7121 144.965 22.6404 144.924 22.5798C144.883 22.5193 144.825 22.4729 144.756 22.4471C144.54 22.3645 144.309 22.328 144.078 22.34C143.945 22.34 143.792 22.3482 143.621 22.3635C143.451 22.3788 143.279 22.4024 143.106 22.4295C142.933 22.4566 142.769 22.4931 142.611 22.5343L142.438 21.6216C142.701 21.5573 142.984 21.5027 143.286 21.458C143.578 21.415 143.873 21.3929 144.168 21.392C144.573 21.3814 144.978 21.4318 145.368 21.5416C145.64 21.6151 145.882 21.774 146.057 21.995C146.212 22.2207 146.289 22.4904 146.278 22.7639V23.9345C146.267 24.0387 146.29 24.1437 146.344 24.2336C146.364 24.2587 146.39 24.2787 146.42 24.2922C146.449 24.3057 146.481 24.3122 146.513 24.3113C146.544 24.3111 146.574 24.3087 146.604 24.3042C146.637 24.2993 146.669 24.2922 146.7 24.283L146.811 25.1073C146.7 25.1789 146.579 25.233 146.451 25.2675C146.311 25.305 146.167 25.3236 146.022 25.3228C145.824 25.3278 145.628 25.2875 145.448 25.2051C145.287 25.1237 145.165 24.9818 145.109 24.8106C144.952 24.9152 144.786 25.0074 144.614 25.0861C144.442 25.1642 144.262 25.2227 144.078 25.2604C143.873 25.301 143.664 25.3207 143.455 25.3193C143.292 25.32 143.129 25.299 142.971 25.2569C142.824 25.2179 142.687 25.1503 142.566 25.0579C142.446 24.9649 142.351 24.8435 142.29 24.7046C142.219 24.5461 142.185 24.374 142.189 24.2006ZM143.544 24.1311C143.539 24.1879 143.547 24.2451 143.567 24.2984C143.587 24.3516 143.62 24.3995 143.661 24.4385C143.752 24.5091 143.865 24.5446 143.98 24.5386C144.088 24.5368 144.195 24.5217 144.299 24.4938C144.425 24.4629 144.548 24.4215 144.667 24.3702C144.781 24.3228 144.887 24.2585 144.982 24.1794V23.5906C144.73 23.5988 144.512 23.613 144.33 23.6318C144.178 23.6439 144.027 23.6728 143.88 23.7178C143.781 23.7453 143.692 23.8004 143.624 23.8768C143.568 23.9488 143.539 24.0387 143.544 24.1299V24.1311Z" fill="white"/>
<path d="M156.628 21.4925V22.0554C156.767 21.9242 156.915 21.803 157.071 21.6927C157.19 21.6079 157.322 21.5412 157.461 21.4949C157.596 21.4531 157.737 21.4325 157.879 21.4336C157.975 21.4333 158.072 21.4412 158.167 21.4572C158.264 21.4733 158.36 21.4953 158.455 21.5231L158.282 22.6006C158.183 22.5742 158.082 22.5534 157.981 22.5382C157.885 22.5252 157.789 22.5185 157.693 22.5182C157.542 22.5198 157.393 22.5452 157.251 22.5936C157.07 22.658 156.9 22.7488 156.746 22.8632V25.2608H155.452V21.4925H156.628Z" fill="white"/>
<path d="M171.179 25.3782C171.09 25.3782 171.001 25.3704 170.913 25.3547C170.809 25.3345 170.708 25.3021 170.611 25.2581C170.476 25.1965 170.346 25.1261 170.22 25.0473C170.07 24.9555 169.892 24.833 169.685 24.6811L168.509 23.8238V25.2604H167.215V20.1968H168.509V22.4566L169.889 23.4646C170.158 23.6589 170.378 23.8073 170.551 23.9109C170.688 23.9968 170.833 24.0686 170.985 24.1252C171.087 24.1613 171.193 24.1807 171.301 24.1829C171.324 24.1829 171.347 24.1829 171.372 24.1829C171.397 24.1829 171.423 24.1829 171.45 24.1829L171.457 25.3605L171.339 25.3747C171.301 25.3782 171.246 25.3782 171.179 25.3782ZM169.492 23.5011L168.297 23.1973C168.533 23.0262 168.742 22.866 168.925 22.7168C169.097 22.5801 169.261 22.4338 169.416 22.2788C169.549 22.1469 169.67 22.0035 169.777 21.8501C169.873 21.7103 169.952 21.5598 170.012 21.4015L171.392 21.4698C171.309 21.6865 171.196 21.8903 171.056 22.075C170.907 22.2726 170.743 22.4584 170.565 22.6309C170.389 22.8018 170.205 22.9634 170.012 23.1149C169.826 23.2625 169.653 23.3912 169.492 23.5011Z" fill="white"/>
<path d="M182.204 25.3089C181.876 25.3129 181.548 25.2781 181.228 25.2052C180.964 25.1459 180.714 25.0338 180.493 24.8755C180.289 24.7238 180.129 24.5206 180.03 24.2867C179.918 24.0171 179.864 23.7271 179.871 23.4353C179.862 23.1089 179.926 22.7847 180.058 22.4862C180.174 22.2349 180.351 22.0164 180.572 21.8503C180.799 21.685 181.056 21.565 181.328 21.497C181.628 21.4218 181.936 21.3846 182.246 21.3863C182.932 21.3863 183.441 21.5264 183.775 21.8067C184.108 22.087 184.274 22.5352 184.272 23.1515V23.3246C184.272 23.3992 184.27 23.471 184.265 23.5401L183.737 23.5754C183.532 23.5896 183.3 23.6033 183.04 23.6167C182.78 23.6308 182.499 23.6426 182.194 23.652C181.889 23.6614 181.566 23.6708 181.221 23.6791C181.217 23.6927 181.214 23.707 181.214 23.7215V23.7627C181.215 23.8927 181.263 24.018 181.348 24.116C181.455 24.2233 181.591 24.297 181.739 24.3279C181.951 24.3789 182.169 24.4022 182.388 24.3974C182.567 24.3974 182.753 24.3892 182.943 24.3739C183.134 24.3585 183.329 24.3338 183.531 24.3044C183.733 24.2749 183.928 24.2396 184.119 24.2031L184.257 25.051C184.055 25.1016 183.846 25.1475 183.632 25.1864C183.418 25.2253 183.195 25.2547 182.963 25.2735C182.731 25.2924 182.476 25.3089 182.204 25.3089ZM181.264 22.9631C181.451 22.9631 181.632 22.9631 181.806 22.956C181.98 22.949 182.142 22.9454 182.296 22.9384L182.704 22.9207C182.822 22.9207 182.92 22.9125 182.993 22.9077C182.989 22.7727 182.955 22.6401 182.893 22.5203C182.836 22.4196 182.747 22.3415 182.64 22.2989C182.502 22.249 182.356 22.2258 182.21 22.2306C182.104 22.2304 181.998 22.2419 181.894 22.2648C181.794 22.287 181.699 22.3269 181.613 22.3825C181.524 22.4418 181.449 22.5193 181.393 22.6098C181.331 22.7191 181.289 22.8388 181.269 22.9631H181.264Z" fill="white"/>
<path d="M194.812 25.2806C194.559 25.2873 194.307 25.2378 194.076 25.1358C193.869 25.0375 193.703 24.8711 193.605 24.6647C193.484 24.3874 193.428 24.0861 193.442 23.7839V22.3166H192.736V21.5594L193.442 21.4723L193.584 20.668H194.737V21.4923H196.03V22.3166H194.737V23.705C194.722 23.8554 194.768 24.0055 194.862 24.123C194.916 24.1697 194.978 24.2051 195.045 24.2271C195.112 24.2492 195.183 24.2574 195.254 24.2514C195.375 24.2509 195.496 24.2382 195.615 24.2137L196.023 24.1266L196.187 25.0687C195.955 25.1351 195.719 25.187 195.481 25.2241C195.26 25.2598 195.036 25.2787 194.812 25.2806Z" fill="white"/>
<path d="M56.7445 26.9705C55.1331 28.8193 52.7078 30.3149 49.4686 31.4572C46.2295 32.5994 42.3124 33.1706 37.7175 33.1706C33.1516 33.1706 29.0899 32.7839 25.5324 32.0106C21.9748 31.2373 19.1363 29.9856 17.0169 28.2553C16.3152 27.6872 15.7034 27.0163 15.202 26.2651H13.2613C13.0402 27.9138 12.3263 29.7979 11.1031 31.9353C9.67764 34.4511 7.86844 36.7285 5.7409 38.6853C3.65907 40.5843 1.74544 41.5339 0 41.5339V42.0379H13.8471V26.5666H13.9471C14.571 29.6984 15.9932 32.6155 18.0754 35.0347C20.1925 37.5218 22.9279 39.4711 26.2816 40.8827C29.6352 42.2942 33.4453 43.0008 37.7116 43.0023C42.2422 43.0023 46.1691 41.9939 49.4922 39.9771C52.8153 37.9603 55.3413 35.2887 57.0702 31.9624C58.0048 30.1632 58.6954 28.2472 59.1238 26.2651H57.3172C57.1396 26.5007 56.9479 26.7362 56.7445 26.9705Z" fill="white"/>
<path d="M17.1698 14.7706C19.3857 13.0576 22.1799 11.8046 25.5524 11.0117C28.9455 10.22 32.4186 9.82252 35.9027 9.82706C40.4019 9.82706 44.4217 10.3228 47.962 11.3144C51.5022 12.3059 54.2545 13.6335 56.2187 15.297C57.5737 16.444 58.4534 17.6451 58.8698 18.8969H59.5943C59.3729 15.966 58.5309 13.1159 57.1244 10.536C55.4283 7.41063 52.8435 4.8733 49.3698 2.92398C45.8962 0.974661 41.6244 0 36.5543 0C32.5263 0 28.9193 0.689287 25.7335 2.06786C22.5476 3.44644 19.9463 5.35336 17.9296 7.78864C15.9377 10.18 14.5707 13.0297 13.9518 16.0813H13.8518V0.958567H0V1.46257C1.74544 1.46257 3.65907 2.41211 5.7409 4.31119C7.86862 6.26953 9.67781 8.54856 11.1031 11.0659C12.5929 13.6707 13.3378 15.9137 13.3378 17.7947V18.9016H14.1941C14.6728 17.3213 15.656 15.9411 17.1698 14.7706Z" fill="white"/>
<path d="M92.7435 10.4853C96.7041 11.2924 100.212 12.4939 103.267 14.09C105.432 15.2216 107.347 16.8314 109.023 18.9005H110.06L107.194 13.6119C104.542 8.73817 101.437 5.2513 97.8799 3.15125C94.3223 1.0512 90.7977 0.000785066 87.3061 0C83.8152 0 81.1131 0.798415 79.1999 2.39524C77.2867 3.99206 76.1199 5.9245 75.6996 8.19255C75.2801 10.4645 75.4397 12.5399 76.1783 14.4185H76.6829C76.6147 12.974 77.3698 11.8749 78.9482 11.1212C80.5266 10.3676 82.532 9.93854 84.9643 9.83412C87.4029 9.73383 89.8448 9.91998 92.2401 10.3888L87.1826 18.904H87.7389L92.7435 10.4853Z" fill="white"/>
<path d="M81.9191 27.776C80.2395 30.6666 78.3008 33.1454 76.1029 35.2125C73.9051 37.2796 71.8409 38.8423 69.9104 39.9005C67.9791 40.9588 66.5775 41.5048 65.7056 41.5386V42.0426H90.5275V41.5386C89.0502 41.4711 87.5996 40.4375 86.1757 38.438C84.7517 36.4384 83.8202 34.1028 83.3811 31.4313C83.0694 29.5236 83.167 27.8043 83.6598 26.2651H82.8177L81.9191 27.776Z" fill="white"/>
<path d="M112.506 30.7506C111.595 33.4852 110.168 36.019 108.302 38.2142C106.42 40.4312 104.708 41.5402 103.166 41.5409V42.045H130.203L130.153 41.5409C128.945 41.5409 127.534 41.0789 125.919 40.1549C124.303 39.2309 122.702 37.9952 121.115 36.4478C119.544 34.9311 118.15 33.2401 116.961 31.4077C116.559 30.7694 116.19 30.1646 115.854 29.593L114.051 26.2651H113.156C113.306 27.5126 113.089 29.0078 112.506 30.7506Z" fill="white"/>
<path d="M147.071 9.32641C150.696 9.32641 154.338 9.9733 157.996 11.2671C161.655 12.5609 164.718 14.5942 167.185 17.367C167.611 17.8504 168.003 18.3618 168.361 18.8979H169.89C168.824 15.8511 167.513 13.1136 165.956 10.6854C163.838 7.38808 161.195 4.80011 158.026 2.92145C154.856 1.04279 151.171 0.10071 146.97 0.0952148C144.686 0.0952148 142.664 0.473224 140.902 1.22924C139.14 1.98526 137.781 3.0608 136.824 4.45586C135.868 5.85014 135.39 7.47169 135.389 9.32052C135.39 10.5388 135.595 11.7483 135.994 12.8992H136.497C136.463 12.261 136.866 11.6722 137.705 11.1328C138.544 10.5935 139.727 10.1649 141.255 9.84691C142.783 9.53288 144.553 9.37351 146.566 9.3688V18.9015H147.071V9.32641Z" fill="white"/>
<path d="M144.327 31.9351C142.902 34.4512 141.093 36.7287 138.965 38.6851C136.883 40.5842 134.97 41.5337 133.224 41.5337V42.0377H160.414V41.5337C158.668 41.5337 156.755 40.5842 154.674 38.6851C152.545 36.7276 150.735 34.4484 149.311 31.9304C148.087 29.7966 147.373 27.9089 147.152 26.2603H146.485C146.264 27.9136 145.55 29.8013 144.327 31.9351Z" fill="white"/>
<path d="M203.26 38.6851C201.132 36.7276 199.322 34.4484 197.898 31.9304C196.674 29.7966 195.96 27.9089 195.739 26.2603H195.072C194.851 27.9089 194.137 29.7931 192.913 31.9304C191.489 34.4481 189.68 36.7273 187.551 38.6851C185.469 40.5842 183.556 41.5337 181.812 41.5337V42.0377H209V41.5337C207.254 41.5368 205.34 40.5873 203.26 38.6851Z" fill="white"/>
<path d="M175.094 17.3707C177.562 14.597 180.625 12.5637 184.284 11.2707C187.943 9.97771 191.568 9.33081 195.159 9.33002V18.9015H195.662V9.37713C197.743 9.24288 199.547 9.33512 201.073 9.65386C202.599 9.9726 203.764 10.4252 204.569 11.0116C205.375 11.5997 205.762 12.2297 205.728 12.9017H206.231C206.902 11.3567 207.237 9.92824 207.238 8.6164C207.238 5.99506 206.131 3.92014 203.915 2.39162C201.7 0.863093 198.847 0.0984413 195.355 0.0976562C191.998 0.0976562 188.675 1.05543 185.386 2.97099C182.097 4.88655 179.202 7.54164 176.701 10.9363C174.904 13.3755 173.458 16.0551 172.406 18.8968H173.918C174.276 18.3623 174.669 17.8525 175.094 17.3707Z" fill="white"/>
</g>
<defs>
<clipPath id="clip0_2588_6065">
<rect width="209" height="43" fill="white"/>
</clipPath>
</defs>
</svg>
