<svg width="209" height="43" viewBox="0 0 209 43" fill="none" xmlns="http://www.w3.org/2000/svg">
<g clip-path="url(#clip0_13_35)">
<path d="M15.7925 25.2984C15.4679 25.2984 15.1613 25.2948 14.8727 25.2877C14.5842 25.2807 14.3097 25.2724 14.0494 25.263L13.2567 25.2359V20.3925C13.5542 20.3736 13.833 20.3607 14.0941 20.3513C14.3552 20.3418 14.6128 20.3348 14.8692 20.3301C15.1256 20.3254 15.3938 20.323 15.6725 20.323C16.3868 20.323 16.9714 20.4105 17.4262 20.5856C17.8475 20.7339 18.2035 21.0256 18.4318 21.4099C18.6459 21.7797 18.7533 22.2574 18.7541 22.8431C18.7721 23.3217 18.6555 23.7958 18.4177 24.2114C18.1835 24.5865 17.8345 24.8756 17.4227 25.0357C16.9016 25.2289 16.3478 25.3181 15.7925 25.2984ZM15.7925 24.3374C16.066 24.3444 16.3374 24.2875 16.5852 24.1714C16.8046 24.0646 16.9831 23.8888 17.0933 23.6709C17.2184 23.4092 17.2785 23.1212 17.2686 22.8313C17.2807 22.5268 17.2207 22.2237 17.0933 21.9469C16.9824 21.7271 16.801 21.5509 16.5782 21.4464C16.3091 21.3295 16.0174 21.274 15.7243 21.2839H15.3126C15.1707 21.2839 15.0342 21.2875 14.9033 21.2945C14.7739 21.2945 14.6528 21.3051 14.5434 21.3145V24.2927L14.8457 24.3068L15.1538 24.3198C15.2597 24.3198 15.3644 24.328 15.4702 24.3304C15.5761 24.3327 15.6866 24.3374 15.796 24.3374H15.7925Z" fill="#447604"/>
<path d="M29.6549 25.3089C29.3265 25.313 28.9988 25.2782 28.6786 25.2053C28.4139 25.146 28.1639 25.0338 27.9435 24.8756C27.7397 24.7239 27.5798 24.5207 27.4801 24.2868C27.3684 24.0172 27.3143 23.7272 27.3213 23.4354C27.3123 23.109 27.3762 22.7847 27.5083 22.4862C27.6244 22.2349 27.8011 22.0164 28.0223 21.8503C28.2494 21.685 28.5062 21.5651 28.7786 21.497C29.0786 21.4218 29.3868 21.3846 29.696 21.3863C30.3813 21.3863 30.891 21.5265 31.225 21.8068C31.5591 22.087 31.7237 22.5365 31.719 23.1551V23.3282C31.719 23.4028 31.7167 23.4746 31.712 23.5437L31.1839 23.579C30.9792 23.5932 30.7467 23.6069 30.4864 23.6203C30.2265 23.6344 29.9454 23.6462 29.6407 23.6556C29.3361 23.665 29.0127 23.6744 28.668 23.6827C28.6634 23.6963 28.661 23.7106 28.661 23.7251V23.7663C28.6621 23.8963 28.7097 24.0216 28.7951 24.1196C28.9018 24.2269 29.0375 24.3006 29.1856 24.3315C29.3981 24.3824 29.6163 24.4058 29.8348 24.401C30.0136 24.401 30.1994 24.3928 30.39 24.3774C30.5805 24.3621 30.7757 24.3374 30.9781 24.308C31.1804 24.2785 31.3744 24.2432 31.5661 24.2067L31.7037 25.0546C31.5014 25.1052 31.2933 25.1511 31.0792 25.19C30.8651 25.2289 30.6417 25.2583 30.41 25.2771C30.1783 25.296 29.9266 25.3089 29.6549 25.3089ZM28.6822 22.9632C28.8692 22.9632 29.0503 22.9632 29.2244 22.9561C29.3985 22.949 29.5608 22.9455 29.7148 22.9384L30.123 22.9208C30.2406 22.9208 30.3382 22.9125 30.4111 22.9078C30.4077 22.7727 30.3735 22.6402 30.3112 22.5204C30.2547 22.4197 30.1655 22.3415 30.0583 22.299C29.9208 22.2491 29.7751 22.2259 29.629 22.2307C29.5226 22.2305 29.4165 22.242 29.3126 22.2648C29.2127 22.2871 29.1175 22.327 29.0315 22.3826C28.943 22.4416 28.8683 22.5191 28.8127 22.6099C28.7475 22.7184 28.7032 22.8383 28.6822 22.9632Z" fill="#447604"/>
<path d="M40.1746 25.2606L42.3375 20.4325H43.8336L46.0025 25.2606H44.5393L44.15 24.3186H41.9306L41.5424 25.2606H40.1746ZM42.3117 23.3765H43.7666L43.0397 21.4488L42.3117 23.3765Z" fill="#447604"/>
<path d="M55.7129 21.4923V22.0552C55.8516 21.924 55.9994 21.8028 56.1552 21.6925C56.2749 21.6077 56.4065 21.541 56.5456 21.4947C56.6808 21.4529 56.8217 21.4322 56.9632 21.4335C57.0597 21.4332 57.1561 21.4411 57.2514 21.457C57.3483 21.4731 57.4441 21.4951 57.5383 21.523L57.3654 22.6005C57.2667 22.5742 57.1666 22.5533 57.0655 22.5381C56.97 22.525 56.8737 22.5183 56.7774 22.518C56.6269 22.5195 56.4776 22.545 56.3351 22.5934C56.1545 22.6578 55.9845 22.7487 55.8305 22.8631V25.2607H54.5367V21.4923H55.7129Z" fill="#447604"/>
<path d="M68.138 25.2807C67.8849 25.2874 67.6335 25.2379 67.4017 25.1358C67.1956 25.0375 67.0295 24.8712 66.9313 24.6648C66.8105 24.3875 66.7545 24.0862 66.7678 23.784V22.3167H66.0621V21.5595L66.7678 21.4723L66.9101 20.668H68.0627V21.4923H69.3565V22.3167H68.0627V23.7051C68.0486 23.8555 68.0938 24.0055 68.1886 24.1231C68.2419 24.1698 68.304 24.2052 68.3713 24.2273C68.4386 24.2494 68.5097 24.2576 68.5803 24.2515C68.7016 24.2509 68.8225 24.2383 68.9413 24.2138L69.3495 24.1266L69.513 25.0687C69.2812 25.1352 69.0455 25.1871 68.8073 25.2242C68.5859 25.2599 68.3622 25.2788 68.138 25.2807Z" fill="#447604"/>
<path d="M78.8165 21.0696C78.5428 21.0696 78.3468 21.0237 78.2284 20.9318C78.1711 20.8762 78.1255 20.8095 78.0944 20.7359C78.0632 20.6623 78.0472 20.5831 78.0472 20.5032C78.0472 20.4232 78.0632 20.3441 78.0944 20.2704C78.1255 20.1968 78.1711 20.1302 78.2284 20.0745C78.3507 19.9827 78.5468 19.9367 78.8165 19.9367C79.0999 19.9367 79.3022 19.9827 79.421 20.0745C79.4774 20.1308 79.5221 20.1976 79.5526 20.2711C79.5831 20.3447 79.5988 20.4235 79.5988 20.5032C79.5988 20.5828 79.5831 20.6617 79.5526 20.7352C79.5221 20.8088 79.4774 20.8756 79.421 20.9318C79.3022 21.0213 79.0999 21.0696 78.8165 21.0696ZM78.1778 25.2607V21.4923H79.4716V25.2607H78.1778Z" fill="#447604"/>
<path d="M88.2118 25.0699L88.3494 24.2197C88.4553 24.2479 88.5788 24.2762 88.7199 24.3068C88.861 24.3374 89.0116 24.3633 89.1692 24.3857C89.3268 24.4081 89.4832 24.4269 89.6397 24.441C89.7961 24.4552 89.9337 24.4622 90.0619 24.4622C90.2424 24.4704 90.4227 24.4445 90.5935 24.3857C90.6441 24.3722 90.6891 24.3429 90.7219 24.302C90.7547 24.2611 90.7736 24.2108 90.7758 24.1584C90.7754 24.1257 90.7658 24.0938 90.7481 24.0663C90.7305 24.0388 90.7054 24.0169 90.6759 24.003C90.5891 23.9554 90.4954 23.9217 90.3983 23.9029C90.2807 23.8746 90.1431 23.8511 89.9902 23.8299C89.8373 23.8087 89.675 23.7851 89.5056 23.7569C89.3327 23.73 89.1629 23.6863 88.9987 23.6261C88.8631 23.5772 88.7367 23.506 88.6246 23.4154C88.5222 23.3324 88.4414 23.2257 88.3894 23.1045C88.3342 22.9697 88.3074 22.825 88.3106 22.6794C88.3106 22.2382 88.4698 21.9147 88.7881 21.709C89.1065 21.5033 89.5879 21.4009 90.2325 21.4017C90.434 21.4006 90.6354 21.4108 90.8358 21.4323C91.024 21.4535 91.1969 21.4794 91.3545 21.5124C91.5121 21.5453 91.6509 21.5759 91.7697 21.6089L91.6262 22.458C91.5204 22.4262 91.391 22.3956 91.2545 22.3649C91.1181 22.3343 90.9558 22.3096 90.7841 22.2896C90.5971 22.2676 90.409 22.257 90.2207 22.2578C90.049 22.2509 89.8774 22.2745 89.7138 22.3273C89.6639 22.3396 89.6195 22.3679 89.5872 22.4078C89.5549 22.4478 89.5366 22.4973 89.535 22.5486C89.5337 22.5772 89.5389 22.6057 89.5501 22.632C89.5613 22.6583 89.5782 22.6817 89.5997 22.7006C89.6587 22.7437 89.7266 22.773 89.7984 22.7865C89.9064 22.8105 90.0156 22.829 90.1254 22.8419C90.2525 22.8584 90.3995 22.8772 90.5641 22.9007C90.7625 22.9275 90.9589 22.9669 91.1522 23.0185C91.3161 23.0632 91.4723 23.1322 91.6156 23.2234C91.7431 23.3055 91.8481 23.418 91.9214 23.5508C91.9985 23.7027 92.0361 23.8716 92.0308 24.0418C92.036 24.2208 91.9985 24.3984 91.9214 24.56C91.8488 24.7003 91.744 24.8213 91.6156 24.9133C91.4764 25.0121 91.3224 25.088 91.1593 25.1382C90.9781 25.1954 90.7918 25.2348 90.603 25.2559C90.4004 25.2799 90.1965 25.2917 89.9925 25.2913C89.7871 25.2913 89.5813 25.2819 89.375 25.263C89.1692 25.2453 88.9681 25.2183 88.774 25.1841C88.5799 25.15 88.3859 25.1158 88.2118 25.0699Z" fill="#447604"/>
<path d="M100.435 24.2008C100.424 23.9904 100.48 23.782 100.594 23.605C100.721 23.4414 100.893 23.3186 101.088 23.2517C101.369 23.1509 101.661 23.0856 101.958 23.0574C102.311 23.015 102.736 22.9856 103.23 22.9667V22.7854C103.232 22.7123 103.211 22.6406 103.17 22.5801C103.129 22.5195 103.07 22.4732 103.002 22.4474C102.786 22.3647 102.555 22.3282 102.323 22.3402C102.191 22.3402 102.038 22.3485 101.867 22.3638C101.697 22.3791 101.525 22.4026 101.352 22.4297C101.179 22.4568 101.014 22.4933 100.857 22.5345L100.684 21.6101C100.947 21.5457 101.23 21.4912 101.532 21.4464C101.824 21.4034 102.119 21.3814 102.414 21.3805C102.819 21.3698 103.224 21.4202 103.614 21.53C103.886 21.6036 104.127 21.7625 104.303 21.9834C104.457 22.2092 104.535 22.4789 104.524 22.7524V23.9229C104.513 24.0271 104.536 24.1321 104.59 24.222C104.61 24.2471 104.636 24.2672 104.666 24.2807C104.695 24.2942 104.727 24.3007 104.759 24.2998C104.79 24.2996 104.82 24.2972 104.85 24.2927C104.882 24.2878 104.915 24.2807 104.946 24.2715L105.057 25.0958C104.946 25.1674 104.824 25.2214 104.697 25.256C104.557 25.2935 104.413 25.3121 104.268 25.3113C104.07 25.3163 103.874 25.276 103.694 25.1935C103.533 25.1121 103.411 24.9703 103.355 24.7991C103.197 24.9037 103.032 24.9958 102.86 25.0746C102.688 25.1527 102.508 25.2111 102.323 25.2489C102.119 25.2895 101.91 25.3092 101.701 25.3078C101.538 25.3085 101.375 25.2875 101.217 25.2454C101.07 25.2064 100.933 25.1387 100.812 25.0463C100.692 24.9534 100.597 24.8319 100.536 24.6931C100.467 24.5382 100.432 24.3703 100.435 24.2008ZM101.907 24.1314C101.902 24.1882 101.91 24.2454 101.93 24.2986C101.951 24.3519 101.983 24.3998 102.025 24.4387C102.116 24.5093 102.229 24.5448 102.343 24.5388C102.451 24.537 102.558 24.522 102.662 24.4941C102.788 24.4631 102.911 24.4218 103.03 24.3704C103.144 24.323 103.251 24.2587 103.346 24.1796V23.5908C103.094 23.5991 102.875 23.6132 102.694 23.6321C102.541 23.6442 102.39 23.673 102.243 23.718C102.145 23.7456 102.056 23.8007 101.987 23.877C101.931 23.9491 101.903 24.0389 101.907 24.1302V24.1314Z" fill="#447604"/>
<path d="M113.698 25.2607V21.4923H114.874V21.9151C115.081 21.8044 115.271 21.7129 115.443 21.6407C115.611 21.5715 115.785 21.5171 115.962 21.4782C116.144 21.4409 116.329 21.4223 116.514 21.4229C116.788 21.4129 117.061 21.4686 117.309 21.5854C117.508 21.6833 117.672 21.8394 117.78 22.0329C117.886 22.2332 117.939 22.4573 117.935 22.6841V25.2607H116.641V23.1327C116.649 23.0385 116.639 22.9435 116.61 22.8533C116.582 22.7632 116.535 22.6796 116.474 22.6075C116.408 22.5487 116.33 22.5037 116.246 22.4752C116.162 22.4467 116.073 22.4353 115.985 22.4415C115.877 22.4415 115.769 22.4522 115.664 22.4733C115.555 22.4943 115.448 22.5243 115.344 22.5628C115.236 22.6013 115.119 22.646 114.991 22.697V25.2607H113.698Z" fill="#447604"/>
<path d="M126.871 25.2607V21.4923H128.048V21.9151C128.215 21.8147 128.389 21.7254 128.569 21.6478C128.729 21.5795 128.894 21.5251 129.064 21.4853C129.226 21.4488 129.391 21.4302 129.557 21.4299C129.723 21.4265 129.889 21.4475 130.049 21.4923C130.175 21.528 130.292 21.588 130.394 21.669C130.49 21.7487 130.57 21.8463 130.629 21.9563C130.835 21.8386 131.028 21.7443 131.204 21.6654C131.375 21.5886 131.553 21.5283 131.735 21.4853C131.919 21.4431 132.108 21.4221 132.297 21.4229C132.454 21.4206 132.611 21.4428 132.762 21.4888C132.891 21.5289 133.012 21.5911 133.12 21.6725C133.221 21.7488 133.308 21.8425 133.376 21.9492C133.443 22.0561 133.493 22.1729 133.524 22.2955C133.556 22.4225 133.572 22.553 133.572 22.6841V25.2607H132.278V23.141C132.279 23.0527 132.269 22.9646 132.25 22.8784C132.233 22.8003 132.201 22.7262 132.156 22.6605C132.109 22.5967 132.047 22.5457 131.976 22.5121C131.886 22.4722 131.788 22.4533 131.689 22.4568C131.587 22.4568 131.486 22.4682 131.387 22.4909C131.29 22.5138 131.195 22.5437 131.102 22.5804C131.01 22.6181 130.923 22.657 130.839 22.6982C130.848 22.7539 130.855 22.8081 130.86 22.8607C130.865 22.9133 130.867 22.9651 130.867 23.0162V25.2607H129.573V23.141C129.574 23.0527 129.564 22.9646 129.545 22.8784C129.529 22.7996 129.496 22.7253 129.448 22.6605C129.4 22.5967 129.336 22.5458 129.264 22.5121C129.173 22.472 129.075 22.4531 128.976 22.4568C128.883 22.457 128.791 22.4672 128.7 22.4874C128.61 22.5081 128.522 22.5361 128.436 22.571C128.351 22.6052 128.259 22.6476 128.162 22.6982V25.2607H126.871Z" fill="#447604"/>
<path d="M142.189 24.2008C142.178 23.9904 142.234 23.782 142.349 23.605C142.475 23.4414 142.647 23.3186 142.843 23.2517C143.123 23.1509 143.415 23.0856 143.712 23.0574C144.065 23.015 144.49 22.9856 144.984 22.9667V22.7854C144.986 22.7123 144.965 22.6406 144.924 22.5801C144.883 22.5195 144.825 22.4732 144.756 22.4474C144.54 22.3647 144.309 22.3282 144.078 22.3402C143.945 22.3402 143.792 22.3485 143.621 22.3638C143.451 22.3791 143.279 22.4026 143.106 22.4297C142.933 22.4568 142.769 22.4933 142.611 22.5345L142.438 21.6219C142.701 21.5575 142.984 21.503 143.286 21.4582C143.578 21.4152 143.873 21.3932 144.168 21.3923C144.573 21.3816 144.978 21.432 145.368 21.5418C145.64 21.6153 145.882 21.7742 146.057 21.9952C146.212 22.221 146.289 22.4907 146.278 22.7642V23.9347C146.267 24.0389 146.29 24.1439 146.344 24.2338C146.364 24.2589 146.39 24.279 146.42 24.2924C146.449 24.3059 146.481 24.3125 146.513 24.3115C146.544 24.3113 146.574 24.309 146.604 24.3045C146.637 24.2995 146.669 24.2924 146.7 24.2833L146.811 25.1076C146.7 25.1792 146.579 25.2332 146.451 25.2677C146.311 25.3053 146.167 25.3239 146.022 25.3231C145.824 25.328 145.628 25.2878 145.448 25.2053C145.287 25.1239 145.165 24.982 145.109 24.8108C144.952 24.9155 144.786 25.0076 144.614 25.0864C144.442 25.1645 144.262 25.2229 144.078 25.2607C143.873 25.3012 143.664 25.321 143.455 25.3196C143.292 25.3202 143.129 25.2992 142.971 25.2571C142.824 25.2181 142.687 25.1505 142.566 25.0581C142.446 24.9651 142.351 24.8437 142.29 24.7048C142.219 24.5464 142.185 24.3742 142.189 24.2008ZM143.544 24.1314C143.539 24.1882 143.547 24.2454 143.567 24.2986C143.587 24.3519 143.62 24.3998 143.661 24.4387C143.752 24.5093 143.865 24.5448 143.98 24.5388C144.088 24.537 144.195 24.522 144.299 24.4941C144.425 24.4631 144.548 24.4218 144.667 24.3704C144.781 24.323 144.887 24.2587 144.982 24.1796V23.5908C144.73 23.5991 144.512 23.6132 144.33 23.6321C144.178 23.6442 144.027 23.673 143.88 23.718C143.781 23.7455 143.692 23.8007 143.624 23.877C143.568 23.9491 143.539 24.0389 143.544 24.1302V24.1314Z" fill="#447604"/>
<path d="M156.629 21.4923V22.0552C156.767 21.924 156.915 21.8028 157.071 21.6925C157.191 21.6077 157.322 21.541 157.461 21.4947C157.597 21.4529 157.737 21.4323 157.879 21.4335C157.975 21.4331 158.072 21.441 158.167 21.457C158.264 21.4731 158.361 21.4951 158.455 21.523L158.282 22.6005C158.183 22.574 158.083 22.5532 157.981 22.538C157.886 22.525 157.789 22.5183 157.693 22.518C157.543 22.5196 157.393 22.5451 157.251 22.5934C157.07 22.6578 156.9 22.7487 156.746 22.8631V25.2607H155.452V21.4923H156.629Z" fill="#447604"/>
<path d="M171.179 25.3784C171.09 25.3785 171.001 25.3706 170.913 25.3549C170.809 25.3347 170.708 25.3023 170.611 25.2583C170.476 25.1967 170.346 25.1263 170.22 25.0475C170.07 24.9557 169.892 24.8332 169.685 24.6813L168.509 23.824V25.2607H167.215V20.197H168.509V22.4568L169.889 23.4648C170.158 23.6591 170.378 23.8075 170.551 23.9111C170.688 23.997 170.833 24.0688 170.985 24.1255C171.087 24.1615 171.193 24.181 171.301 24.1832C171.324 24.1832 171.347 24.1832 171.372 24.1832C171.397 24.1832 171.422 24.1832 171.45 24.1832L171.457 25.3608L171.339 25.3749C171.301 25.3784 171.246 25.3784 171.179 25.3784ZM169.492 23.5013L168.297 23.1975C168.533 23.0264 168.742 22.8662 168.925 22.7171C169.097 22.5803 169.261 22.4341 169.416 22.279C169.549 22.1471 169.67 22.0037 169.777 21.8503C169.873 21.7106 169.952 21.56 170.012 21.4017L171.392 21.47C171.309 21.6867 171.196 21.8906 171.056 22.0753C170.906 22.2728 170.742 22.4587 170.565 22.6311C170.389 22.8021 170.205 22.9636 170.012 23.1151C169.826 23.2627 169.653 23.3914 169.492 23.5013Z" fill="#447604"/>
<path d="M182.204 25.3089C181.876 25.313 181.548 25.2782 181.228 25.2053C180.964 25.146 180.714 25.0338 180.493 24.8756C180.289 24.7239 180.129 24.5207 180.03 24.2868C179.918 24.0172 179.864 23.7272 179.871 23.4354C179.862 23.109 179.926 22.7847 180.058 22.4862C180.174 22.2349 180.351 22.0164 180.572 21.8503C180.799 21.685 181.056 21.5651 181.328 21.497C181.628 21.4218 181.936 21.3846 182.246 21.3863C182.932 21.3863 183.441 21.5265 183.775 21.8068C184.108 22.087 184.274 22.5353 184.272 23.1516V23.3247C184.272 23.3993 184.27 23.4711 184.265 23.5402L183.737 23.5755C183.532 23.5896 183.3 23.6034 183.04 23.6167C182.78 23.6309 182.498 23.6426 182.194 23.6521C181.889 23.6615 181.566 23.6709 181.221 23.6791C181.217 23.6928 181.214 23.7071 181.214 23.7215V23.7627C181.215 23.8928 181.263 24.0181 181.348 24.116C181.455 24.2234 181.591 24.2971 181.739 24.328C181.951 24.3789 182.169 24.4023 182.388 24.3975C182.567 24.3975 182.753 24.3892 182.943 24.3739C183.134 24.3586 183.329 24.3339 183.531 24.3044C183.733 24.275 183.928 24.2397 184.119 24.2032L184.257 25.051C184.055 25.1017 183.846 25.1476 183.632 25.1865C183.418 25.2253 183.195 25.2548 182.963 25.2736C182.731 25.2924 182.476 25.3089 182.204 25.3089ZM181.264 22.9632C181.451 22.9632 181.632 22.9632 181.806 22.9561C181.98 22.949 182.142 22.9455 182.296 22.9384L182.704 22.9208C182.822 22.9208 182.92 22.9125 182.992 22.9078C182.989 22.7727 182.955 22.6402 182.893 22.5204C182.836 22.4197 182.747 22.3415 182.64 22.299C182.502 22.2491 182.356 22.2259 182.21 22.2307C182.104 22.2305 181.998 22.2419 181.894 22.2648C181.794 22.2871 181.699 22.327 181.613 22.3826C181.524 22.4419 181.449 22.5194 181.393 22.6099C181.331 22.7192 181.289 22.8389 181.269 22.9632H181.264Z" fill="#447604"/>
<path d="M194.812 25.2807C194.559 25.2874 194.307 25.2379 194.076 25.1358C193.869 25.0375 193.703 24.8712 193.605 24.6648C193.484 24.3875 193.428 24.0862 193.442 23.784V22.3167H192.736V21.5595L193.442 21.4723L193.584 20.668H194.737V21.4923H196.03V22.3167H194.737V23.7051C194.722 23.8555 194.768 24.0055 194.862 24.1231C194.916 24.1698 194.978 24.2052 195.045 24.2272C195.112 24.2493 195.184 24.2575 195.254 24.2515C195.375 24.2509 195.496 24.2383 195.615 24.2138L196.023 24.1266L196.187 25.0687C195.955 25.1352 195.719 25.1871 195.481 25.2242C195.26 25.2599 195.036 25.2788 194.812 25.2807Z" fill="#447604"/>
<path d="M56.7445 26.9705C55.1331 28.8194 52.7078 30.3149 49.4686 31.4572C46.2295 32.5995 42.3124 33.1706 37.7175 33.1706C33.1516 33.1706 29.0899 32.784 25.5324 32.0107C21.9748 31.2374 19.1363 29.9856 17.0169 28.2553C16.3152 27.6873 15.7034 27.0163 15.202 26.2652H13.2613C13.0402 27.9138 12.3263 29.798 11.1031 31.9353C9.67764 34.4511 7.86844 36.7286 5.7409 38.6853C3.65907 40.5844 1.74544 41.5339 0 41.5339V42.0379H13.8471V26.5666H13.9471C14.571 29.6985 15.9932 32.6156 18.0754 35.0347C20.1925 37.5218 22.9279 39.4711 26.2816 40.8827C29.6352 42.2942 33.4453 43.0008 37.7116 43.0024C42.2422 43.0024 46.1691 41.9939 49.4922 39.9771C52.8153 37.9603 55.3413 35.2887 57.0702 31.9624C58.0048 30.1632 58.6954 28.2472 59.1238 26.2652H57.3172C57.1396 26.5007 56.9479 26.7362 56.7445 26.9705Z" fill="#447604"/>
<path d="M17.1698 14.7706C19.3857 13.0576 22.1799 11.8046 25.5524 11.0117C28.9455 10.22 32.4186 9.82252 35.9027 9.82706C40.4019 9.82706 44.4217 10.3228 47.962 11.3144C51.5022 12.3059 54.2545 13.6335 56.2187 15.297C57.5737 16.444 58.4534 17.6451 58.8698 18.8969H59.5943C59.3729 15.966 58.5309 13.1159 57.1244 10.536C55.4283 7.41063 52.8435 4.8733 49.3698 2.92398C45.8962 0.974661 41.6244 0 36.5543 0C32.5263 0 28.9193 0.689287 25.7335 2.06786C22.5476 3.44644 19.9463 5.35336 17.9296 7.78864C15.9377 10.18 14.5707 13.0297 13.9518 16.0813H13.8518V0.958567H0V1.46257C1.74544 1.46257 3.65907 2.41211 5.7409 4.31119C7.86862 6.26953 9.67781 8.54856 11.1031 11.0659C12.5929 13.6707 13.3378 15.9137 13.3378 17.7947V18.9016H14.1941C14.6728 17.3213 15.656 15.9411 17.1698 14.7706Z" fill="#447604"/>
<path d="M92.7436 10.4853C96.7042 11.2924 100.212 12.4939 103.267 14.09C105.432 15.2216 107.347 16.8314 109.023 18.9005H110.06L107.194 13.6119C104.542 8.73817 101.437 5.2513 97.8799 3.15125C94.3224 1.0512 90.7978 0.000785066 87.3061 0C83.8153 0 81.1132 0.798415 79.2 2.39524C77.2867 3.99206 76.12 5.9245 75.6997 8.19255C75.2802 10.4645 75.4397 12.5399 76.1784 14.4185H76.6829C76.6147 12.974 77.3698 11.8749 78.9483 11.1212C80.5267 10.3676 82.5321 9.93854 84.9644 9.83412C87.403 9.73383 89.8449 9.91998 92.2402 10.3888L87.1826 18.904H87.739L92.7436 10.4853Z" fill="#447604"/>
<path d="M81.9192 27.776C80.2397 30.6666 78.3009 33.1455 76.1031 35.2126C73.9052 37.2796 71.841 38.8423 69.9105 39.9006C67.9792 40.9588 66.5776 41.5049 65.7057 41.5386V42.0426H90.5276V41.5386C89.0504 41.4711 87.5997 40.4376 86.1758 38.438C84.7518 36.4384 83.8203 34.1029 83.3812 31.4313C83.0695 29.5236 83.1671 27.8043 83.66 26.2652H82.8178L81.9192 27.776Z" fill="#447604"/>
<path d="M112.506 30.7506C111.595 33.4852 110.168 36.0191 108.302 38.2143C106.42 40.4313 104.708 41.5402 103.166 41.541V42.045H130.203L130.153 41.541C128.945 41.541 127.534 41.079 125.919 40.1549C124.303 39.2309 122.702 37.9952 121.115 36.4479C119.544 34.9311 118.15 33.2402 116.961 31.4077C116.559 30.7695 116.19 30.1646 115.854 29.5931L114.051 26.2652H113.156C113.306 27.5126 113.089 29.0078 112.506 30.7506Z" fill="#447604"/>
<path d="M147.071 9.32659C150.696 9.32659 154.338 9.97348 157.996 11.2673C161.655 12.5611 164.718 14.5944 167.185 17.3672C167.611 17.8506 168.004 18.362 168.361 18.8981H169.89C168.824 15.8513 167.513 13.1137 165.956 10.6855C163.839 7.38826 161.195 4.8003 158.026 2.92163C154.856 1.04297 151.171 0.100893 146.97 0.0953979C144.686 0.0953979 142.664 0.473408 140.902 1.22943C139.14 1.98544 137.781 3.06099 136.824 4.45605C135.868 5.85032 135.39 7.47188 135.389 9.32071C135.391 10.539 135.595 11.7485 135.994 12.8994H136.497C136.463 12.2612 136.866 11.6724 137.705 11.133C138.544 10.5937 139.727 10.165 141.255 9.84709C142.783 9.53306 144.554 9.37369 146.566 9.36898V18.9016H147.071V9.32659Z" fill="#447604"/>
<path d="M144.327 31.9353C142.902 34.4514 141.093 36.7289 138.965 38.6853C136.883 40.5844 134.969 41.5339 133.224 41.5339V42.0379H160.413V41.5339C158.668 41.5339 156.755 40.5844 154.674 38.6853C152.545 36.7278 150.735 34.4486 149.31 31.9306C148.087 29.7968 147.373 27.9091 147.152 26.2604H146.485C146.264 27.9138 145.55 29.8015 144.327 31.9353Z" fill="#447604"/>
<path d="M203.26 38.6853C201.132 36.7278 199.322 34.4486 197.898 31.9306C196.674 29.7968 195.96 27.9091 195.739 26.2604H195.072C194.851 27.9091 194.137 29.7932 192.913 31.9306C191.489 34.4483 189.68 36.7274 187.551 38.6853C185.469 40.5844 183.556 41.5339 181.812 41.5339V42.0379H209V41.5339C207.254 41.537 205.341 40.5875 203.26 38.6853Z" fill="#447604"/>
<path d="M175.094 17.3708C177.562 14.5971 180.625 12.5638 184.284 11.2708C187.943 9.9778 191.568 9.3309 195.159 9.33011V18.9016H195.662V9.37722C197.743 9.24297 199.547 9.33522 201.073 9.65395C202.599 9.97269 203.764 10.4253 204.569 11.0117C205.375 11.5997 205.762 12.2298 205.728 12.9018H206.231C206.902 11.3568 207.237 9.92833 207.238 8.61649C207.238 5.99516 206.131 3.92023 203.915 2.39171C201.7 0.863184 198.847 0.0985329 195.355 0.0977478C191.998 0.0977478 188.675 1.05552 185.386 2.97108C182.097 4.88664 179.202 7.54174 176.701 10.9364C174.904 13.3756 173.458 16.0552 172.406 18.8969H173.918C174.276 18.3624 174.669 17.8526 175.094 17.3708Z" fill="#447604"/>
</g>
<defs>
<clipPath id="clip0_13_35">
<rect width="209" height="43" fill="white"/>
</clipPath>
</defs>
</svg>
